<svg width="32" height="32" viewBox="0 0 32 32" fill="none" xmlns="http://www.w3.org/2000/svg">
<path d="M20.0081 15.8169C20.0081 16.8058 19.7149 17.7725 19.1655 18.5948C18.6161 19.417 17.8352 20.0579 16.9215 20.4363C16.0079 20.8147 15.0026 20.9138 14.0327 20.7208C13.0628 20.5279 12.1719 20.0517 11.4726 19.3524C10.7733 18.6532 10.2971 17.7623 10.1042 16.7924C9.91127 15.8225 10.0103 14.8171 10.3887 13.9035C10.7672 12.9899 11.408 12.209 12.2303 11.6596C13.0525 11.1102 14.0192 10.8169 15.0081 10.8169C16.3342 10.8169 17.606 11.3437 18.5437 12.2814C19.4813 13.2191 20.0081 14.4908 20.0081 15.8169ZM25.0081 15.8169C25.0111 13.3567 24.1042 10.9824 22.4619 9.15066C22.375 9.05042 22.269 8.96847 22.1501 8.90959C22.0313 8.85071 21.9018 8.81607 21.7695 8.80769C21.6371 8.79931 21.5043 8.81735 21.379 8.86077C21.2536 8.90419 21.1382 8.97212 21.0393 9.0606C20.9405 9.14907 20.8602 9.25633 20.8032 9.37613C20.7462 9.49593 20.7137 9.62587 20.7074 9.75838C20.7011 9.89089 20.7213 10.0233 20.7667 10.148C20.8121 10.2726 20.8818 10.387 20.9719 10.4844C22.2836 11.9511 23.0088 13.8498 23.0088 15.8175C23.0088 17.7853 22.2836 19.684 20.9719 21.1507C20.8 21.349 20.7129 21.6069 20.7295 21.8689C20.7461 22.1308 20.865 22.3757 21.0605 22.5508C21.2561 22.7258 21.5126 22.817 21.7748 22.8046C22.037 22.7922 22.2837 22.6772 22.4619 22.4844C24.104 20.6521 25.0109 18.2774 25.0081 15.8169ZM9.04437 10.4844C9.13441 10.387 9.20417 10.2726 9.24957 10.148C9.29498 10.0233 9.31513 9.89089 9.30886 9.75838C9.30258 9.62587 9.27 9.49593 9.21302 9.37613C9.15603 9.25633 9.07578 9.14907 8.97694 9.0606C8.87809 8.97212 8.76263 8.90419 8.63728 8.86077C8.51193 8.81735 8.37919 8.79931 8.24679 8.80769C8.1144 8.81607 7.98499 8.85071 7.86612 8.90959C7.74724 8.96847 7.64127 9.05042 7.55437 9.15066C5.91287 10.9833 5.00518 13.3572 5.00518 15.8175C5.00518 18.2779 5.91287 20.6517 7.55437 22.4844C7.73251 22.6772 7.97929 22.7922 8.24146 22.8046C8.50363 22.817 8.76017 22.7258 8.95573 22.5508C9.15129 22.3757 9.27019 22.1308 9.28677 21.8689C9.30336 21.6069 9.21629 21.349 9.04437 21.1507C7.73132 19.6846 7.00527 17.7856 7.00527 15.8175C7.00527 13.8494 7.73132 11.9505 9.04437 10.4844ZM28.8294 9.98441C28.0975 8.24633 27.0431 6.66259 25.7219 5.31691C25.6308 5.21954 25.5212 5.14137 25.3995 5.08699C25.2778 5.0326 25.1464 5.00311 25.0131 5.00023C24.8798 4.99736 24.7473 5.02116 24.6234 5.07025C24.4994 5.11933 24.3865 5.1927 24.2913 5.28605C24.1962 5.3794 24.1206 5.49083 24.0691 5.6138C24.0176 5.73678 23.9913 5.8688 23.9915 6.00212C23.9918 6.13543 24.0188 6.26734 24.0708 6.3901C24.1228 6.51285 24.1988 6.62397 24.2944 6.71691C26.6778 9.14521 28.0131 12.4119 28.0131 15.8144C28.0131 19.217 26.6778 22.4836 24.2944 24.9119C24.2021 25.0056 24.1292 25.1166 24.0799 25.2385C24.0305 25.3604 24.0056 25.4909 24.0067 25.6224C24.0077 25.7539 24.0347 25.8839 24.086 26.005C24.1373 26.1261 24.2119 26.2359 24.3056 26.3282C24.3994 26.4204 24.5103 26.4933 24.6322 26.5427C24.7541 26.592 24.8846 26.6169 25.0161 26.6159C25.1476 26.6148 25.2776 26.5879 25.3987 26.5366C25.5198 26.4853 25.6296 26.4106 25.7219 26.3169C27.7922 24.2027 29.1916 21.524 29.7445 18.6171C30.2973 15.7102 29.979 12.7047 28.8294 9.97816V9.98441ZM3.02937 20.8769C2.03018 18.5149 1.75267 15.9099 2.23183 13.3904C2.71099 10.871 3.92537 8.54972 5.72187 6.71941C5.90786 6.53011 6.01102 6.27468 6.00868 6.00932C6.00634 5.74396 5.89867 5.49039 5.70937 5.30441C5.52008 5.11843 5.26465 5.01526 4.99929 5.0176C4.73392 5.01995 4.48036 5.12761 4.29437 5.31691C1.5421 8.11882 0 11.8894 0 15.8169C0 19.7445 1.5421 23.515 4.29437 26.3169C4.38544 26.4143 4.49506 26.4924 4.61677 26.5468C4.73849 26.6012 4.86986 26.6307 5.00314 26.6336C5.13642 26.6365 5.26894 26.6127 5.39289 26.5636C5.51684 26.5145 5.62972 26.4411 5.7249 26.3478C5.82008 26.2544 5.89564 26.143 5.94712 26.02C5.99861 25.897 6.02499 25.765 6.0247 25.6317C6.02442 25.4984 5.99749 25.3665 5.94548 25.2437C5.89347 25.121 5.81745 25.0099 5.72187 24.9169C4.57773 23.752 3.66418 22.3813 3.02937 20.8769Z" fill="white"/>
</svg>
