<svg width="32" height="32" viewBox="0 0 32 32" fill="none" xmlns="http://www.w3.org/2000/svg">
<g clip-path="url(#clip0_3201_3046)">
<g filter="url(#filter0_d_3201_3046)">
<path d="M25.1963 6.80376C23.3778 4.98677 21.0614 3.74972 18.54 3.249C16.0185 2.74828 13.4052 3.00636 11.0304 3.99062C8.6556 4.97488 6.62592 6.64113 5.19795 8.77873C3.76997 10.9163 3.00781 13.4293 3.00781 16C3.00781 18.5707 3.76997 21.0837 5.19795 23.2213C6.62592 25.3589 8.6556 27.0251 11.0304 28.0094C13.4052 28.9937 16.0185 29.2517 18.54 28.751C21.0614 28.2503 23.3778 27.0132 25.1963 25.1963C27.6315 22.7552 28.999 19.448 28.999 16C28.999 12.552 27.6315 9.2448 25.1963 6.80376ZM20.7088 21.71C20.616 21.803 20.5057 21.8767 20.3843 21.9271C20.2629 21.9774 20.1328 22.0033 20.0013 22.0033C19.8699 22.0033 19.7398 21.9774 19.6184 21.9271C19.497 21.8767 19.3867 21.803 19.2938 21.71L15.9988 18.415L12.7051 21.71C12.5174 21.8976 12.263 22.0031 11.9976 22.0031C11.7322 22.0031 11.4777 21.8976 11.2901 21.71C11.1024 21.5224 10.997 21.2679 10.997 21.0025C10.997 20.7371 11.1024 20.4826 11.2901 20.295L15.2901 16.295C15.383 16.202 15.4932 16.1283 15.6146 16.0779C15.736 16.0276 15.8662 16.0017 15.9976 16.0017C16.129 16.0017 16.2591 16.0276 16.3805 16.0779C16.5019 16.1283 16.6122 16.202 16.7051 16.295L20.7051 20.295C20.7983 20.3876 20.8724 20.4977 20.923 20.619C20.9737 20.7403 20.9999 20.8703 21.0002 21.0017C21.0006 21.1331 20.975 21.2633 20.925 21.3849C20.875 21.5064 20.8016 21.6169 20.7088 21.71ZM20.7088 14.71C20.616 14.803 20.5057 14.8767 20.3843 14.9271C20.2629 14.9774 20.1328 15.0033 20.0013 15.0033C19.8699 15.0033 19.7398 14.9774 19.6184 14.9271C19.497 14.8767 19.3867 14.803 19.2938 14.71L15.9988 11.4113L12.7051 14.7063C12.5174 14.8939 12.263 14.9993 11.9976 14.9993C11.7322 14.9993 11.4777 14.8939 11.2901 14.7063C11.1024 14.5186 10.997 14.2641 10.997 13.9988C10.997 13.7334 11.1024 13.4789 11.2901 13.2913L15.2901 9.29126C15.383 9.19828 15.4932 9.12452 15.6146 9.0742C15.736 9.02387 15.8662 8.99797 15.9976 8.99797C16.129 8.99797 16.2591 9.02387 16.3805 9.0742C16.5019 9.12452 16.6122 9.19828 16.7051 9.29126L20.7051 13.2913C20.7983 13.3839 20.8724 13.494 20.923 13.6152C20.9737 13.7365 20.9999 13.8666 21.0002 13.998C21.0006 14.1294 20.975 14.2596 20.925 14.3811C20.875 14.5027 20.8016 14.6131 20.7088 14.7063V14.71Z" fill="#454545"/>
</g>
</g>
<defs>
<filter id="filter0_d_3201_3046" x="0.0078125" y="1" width="31.9922" height="32" filterUnits="userSpaceOnUse" color-interpolation-filters="sRGB">
<feFlood flood-opacity="0" result="BackgroundImageFix"/>
<feColorMatrix in="SourceAlpha" type="matrix" values="0 0 0 0 0 0 0 0 0 0 0 0 0 0 0 0 0 0 127 0" result="hardAlpha"/>
<feOffset dy="1"/>
<feGaussianBlur stdDeviation="1.5"/>
<feComposite in2="hardAlpha" operator="out"/>
<feColorMatrix type="matrix" values="0 0 0 0 0 0 0 0 0 0 0 0 0 0 0 0 0 0 0.41 0"/>
<feBlend mode="normal" in2="BackgroundImageFix" result="effect1_dropShadow_3201_3046"/>
<feBlend mode="normal" in="SourceGraphic" in2="effect1_dropShadow_3201_3046" result="shape"/>
</filter>
<clipPath id="clip0_3201_3046">
<rect width="32" height="32" fill="white"/>
</clipPath>
</defs>
</svg>
