<svg width="32" height="32" viewBox="0 0 32 32" fill="none" xmlns="http://www.w3.org/2000/svg">
<g clip-path="url(#clip0_3201_3044)">
<g filter="url(#filter0_d_3201_3044)">
<path d="M6.80366 25.1962C8.62218 27.0132 10.9386 28.2503 13.46 28.751C15.9815 29.2517 18.5948 28.9936 20.9696 28.0094C23.3444 27.0251 25.3741 25.3589 26.8021 23.2213C28.23 21.0837 28.9922 18.5707 28.9922 16C28.9922 13.4293 28.23 10.9163 26.8021 8.77872C25.3741 6.64111 23.3444 4.97487 20.9696 3.99061C18.5948 3.00634 15.9815 2.74826 13.46 3.24899C10.9386 3.74971 8.62218 4.98675 6.80367 6.80374C4.36853 9.24479 3.00098 12.552 3.00098 16C3.00098 19.448 4.36853 22.7552 6.80366 25.1962ZM11.2912 10.29C11.384 10.197 11.4943 10.1233 11.6157 10.0729C11.7371 10.0226 11.8672 9.99671 11.9987 9.99671C12.1301 9.99671 12.2602 10.0226 12.3816 10.0729C12.503 10.1233 12.6133 10.197 12.7062 10.29L16.0012 13.585L19.2949 10.29C19.4826 10.1024 19.7371 9.99694 20.0024 9.99694C20.2678 9.99694 20.5223 10.1024 20.7099 10.29C20.8976 10.4776 21.003 10.7321 21.003 10.9975C21.003 11.2629 20.8976 11.5174 20.7099 11.705L16.7099 15.705C16.617 15.798 16.5068 15.8717 16.3854 15.9221C16.264 15.9724 16.1338 15.9983 16.0024 15.9983C15.871 15.9983 15.7409 15.9724 15.6195 15.9221C15.4981 15.8717 15.3878 15.798 15.2949 15.705L11.2949 11.705C11.2017 11.6124 11.1276 11.5023 11.077 11.381C11.0263 11.2597 11.0001 11.1297 10.9998 10.9983C10.9994 10.8669 11.025 10.7367 11.075 10.6151C11.125 10.4936 11.1984 10.3831 11.2912 10.29ZM11.2912 17.29C11.384 17.197 11.4943 17.1233 11.6157 17.0729C11.7371 17.0226 11.8672 16.9967 11.9987 16.9967C12.1301 16.9967 12.2602 17.0226 12.3816 17.0729C12.503 17.1233 12.6133 17.197 12.7062 17.29L16.0012 20.5887L19.2949 17.2937C19.4826 17.1061 19.7371 17.0007 20.0024 17.0007C20.2678 17.0007 20.5223 17.1061 20.7099 17.2937C20.8976 17.4814 21.003 17.7359 21.003 18.0012C21.003 18.2666 20.8976 18.5211 20.7099 18.7087L16.7099 22.7087C16.617 22.8017 16.5068 22.8755 16.3854 22.9258C16.264 22.9761 16.1338 23.002 16.0024 23.002C15.871 23.002 15.7409 22.9761 15.6195 22.9258C15.4981 22.8755 15.3878 22.8017 15.2949 22.7087L11.2949 18.7087C11.2017 18.6161 11.1276 18.506 11.077 18.3848C11.0263 18.2635 11.0001 18.1334 10.9998 18.002C10.9994 17.8706 11.025 17.7404 11.075 17.6189C11.125 17.4973 11.1984 17.3869 11.2912 17.2937L11.2912 17.29Z" fill="#454545"/>
</g>
</g>
<defs>
<filter id="filter0_d_3201_3044" x="0" y="1" width="31.9922" height="32" filterUnits="userSpaceOnUse" color-interpolation-filters="sRGB">
<feFlood flood-opacity="0" result="BackgroundImageFix"/>
<feColorMatrix in="SourceAlpha" type="matrix" values="0 0 0 0 0 0 0 0 0 0 0 0 0 0 0 0 0 0 127 0" result="hardAlpha"/>
<feOffset dy="1"/>
<feGaussianBlur stdDeviation="1.5"/>
<feComposite in2="hardAlpha" operator="out"/>
<feColorMatrix type="matrix" values="0 0 0 0 0 0 0 0 0 0 0 0 0 0 0 0 0 0 0.41 0"/>
<feBlend mode="normal" in2="BackgroundImageFix" result="effect1_dropShadow_3201_3044"/>
<feBlend mode="normal" in="SourceGraphic" in2="effect1_dropShadow_3201_3044" result="shape"/>
</filter>
<clipPath id="clip0_3201_3044">
<rect width="32" height="32" fill="white" transform="translate(32 32) rotate(-180)"/>
</clipPath>
</defs>
</svg>
