<svg width="40" height="40" viewBox="0 0 40 40" fill="none" xmlns="http://www.w3.org/2000/svg">
<path d="M6.84112 36.4861L4.83068 39.4287L7.20501 39.0978L6.84112 36.4861Z" fill="#301201"/>
<path d="M34.1912 -0.000238554L31.198 2.83722L34.5221 2.37409L34.1912 -0.000238554Z" fill="#301201"/>
<path d="M18 1L11.5693 11.4999L4.58024 20.4999L4.82967 39.4287L19.8341 19.3143L34.1902 -9.20167e-05L18 1Z" fill="#FC5B00"/>
<path d="M10.8327 15.7555L15.9382 19.6123L15.2071 20.5801L10.0259 20.0752L13.5674 22.7506L12.839 23.7149L7.73354 19.8581L8.46198 18.8938L13.652 19.3943L10.1069 16.7163L10.8327 15.7555ZM18.0386 16.9776C17.8214 17.2652 17.5795 17.4882 17.3129 17.6466C17.0464 17.8051 16.7692 17.9023 16.4814 17.9382C16.193 17.97 15.9051 17.9453 15.6176 17.864C15.3297 17.7786 15.0571 17.6388 14.7999 17.4446L14.6597 17.3386C14.3675 17.1179 14.1339 16.8754 13.9591 16.6111C13.7819 16.345 13.665 16.0695 13.6086 15.7846C13.5522 15.4996 13.5584 15.2143 13.6274 14.9286C13.6964 14.6429 13.8288 14.3703 14.0249 14.1108C14.2279 13.842 14.4528 13.6391 14.6993 13.5023C14.9436 13.3637 15.1996 13.2872 15.4674 13.2729C15.7352 13.2586 16.0102 13.3029 16.2923 13.4059C16.572 13.507 16.8498 13.6618 17.1256 13.8702L17.5148 14.1642L15.2686 17.1377L14.6304 16.6556L16.1879 14.5938L16.1178 14.5408C15.967 14.4342 15.8114 14.3607 15.651 14.3203C15.4883 14.2782 15.33 14.2835 15.1763 14.3363C15.0203 14.3873 14.8778 14.4981 14.7489 14.6688C14.6447 14.8067 14.5842 14.95 14.5672 15.0988C14.5497 15.2435 14.5703 15.3912 14.629 15.542C14.6871 15.6887 14.7786 15.8349 14.9035 15.9807C15.0283 16.1264 15.1819 16.2681 15.3643 16.4059L15.5045 16.5118C15.6635 16.6319 15.8267 16.7221 15.994 16.7825C16.1632 16.8405 16.3298 16.8654 16.4939 16.8572C16.6574 16.8448 16.8122 16.8003 16.9584 16.7234C17.104 16.6425 17.2351 16.5249 17.3516 16.3706C17.4982 16.1765 17.5932 15.973 17.6368 15.7598C17.6797 15.5426 17.6705 15.319 17.6092 15.0891L18.4454 14.9883C18.5022 15.1561 18.5332 15.3484 18.5383 15.5652C18.5452 15.7797 18.511 16.0072 18.4357 16.2478C18.3582 16.4866 18.2258 16.7299 18.0386 16.9776ZM19.54 12.9487L17.2855 9.9403L17.7305 9.35121L18.5939 10.2788L20.759 13.2307L20.3749 13.7391L19.54 12.9487ZM16.3107 11.2307L19.6716 12.7892L20.6186 13.4165L20.1762 14.0021L15.63 12.1318L16.3107 11.2307ZM21.1605 10.7307L18.7742 7.96966L19.4523 7.072L22.4993 10.9269L22.0569 11.5125L21.1605 10.7307ZM17.7994 9.26004L21.2761 10.5922L22.298 11.1934L21.9139 11.7018L18.4774 10.4331L17.3517 9.85264L17.7994 9.26004Z" fill="white"/>
</svg>
